<?xml version="1.0" encoding="UTF-8"?> <svg xmlns="http://www.w3.org/2000/svg" xmlns:xlink="http://www.w3.org/1999/xlink" version="1.1" width="1384px" height="488px" style="shape-rendering:geometricPrecision; text-rendering:geometricPrecision; image-rendering:optimizeQuality; fill-rule:evenodd; clip-rule:evenodd"><g><path style="opacity:0.911" fill="#000000" d="M 1168.5,47.5 C 1172.5,47.5 1176.5,47.5 1180.5,47.5C 1180.5,61.5 1180.5,75.5 1180.5,89.5C 1216.63,92.6893 1236.63,112.189 1240.5,148C 1236.88,184.118 1216.88,203.618 1180.5,206.5C 1180.5,220.5 1180.5,234.5 1180.5,248.5C 1176.5,248.5 1172.5,248.5 1168.5,248.5C 1168.5,234.5 1168.5,220.5 1168.5,206.5C 1125.7,201.195 1106.54,177.195 1111,134.5C 1116.13,114.697 1128.3,101.197 1147.5,94C 1154.34,91.7057 1161.34,90.2057 1168.5,89.5C 1168.5,75.5 1168.5,61.5 1168.5,47.5 Z M 1165.5,101.5 C 1166.5,101.5 1167.5,101.5 1168.5,101.5C 1168.5,132.5 1168.5,163.5 1168.5,194.5C 1140.91,191.246 1125.25,175.913 1121.5,148.5C 1124.5,121.837 1139.16,106.171 1165.5,101.5 Z M 1180.5,101.5 C 1213.25,105.411 1228.75,123.744 1227,156.5C 1220.43,179.895 1204.93,192.561 1180.5,194.5C 1180.5,163.5 1180.5,132.5 1180.5,101.5 Z"></path></g><g><path style="opacity:0.911" fill="#000000" d="M 883.5,89.5 C 912.342,88.6568 932.509,101.323 944,127.5C 952.679,157.685 944.179,181.518 918.5,199C 895.766,210.257 874.1,208.591 853.5,194C 849.405,190.296 845.905,186.129 843,181.5C 842.5,203.831 842.333,226.164 842.5,248.5C 838.5,248.5 834.5,248.5 830.5,248.5C 830.5,196.5 830.5,144.5 830.5,92.5C 834.5,92.5 838.5,92.5 842.5,92.5C 842.334,99.8409 842.5,107.174 843,114.5C 852.857,100.16 866.357,91.8265 883.5,89.5 Z M 880.5,101.5 C 907.949,99.48 925.782,111.48 934,137.5C 937.821,164.661 926.987,183.161 901.5,193C 871.008,198.182 851.508,186.015 843,156.5C 840.654,127.816 853.154,109.482 880.5,101.5 Z"></path></g><g><path style="opacity:0.894" fill="#000000" d="M 1016.5,89.5 C 1039.35,87.5133 1057.18,95.8466 1070,114.5C 1070.5,107.174 1070.67,99.8409 1070.5,92.5C 1074.83,92.5 1079.17,92.5 1083.5,92.5C 1083.5,129.5 1083.5,166.5 1083.5,203.5C 1079.17,203.5 1074.83,203.5 1070.5,203.5C 1070.67,196.159 1070.5,188.826 1070,181.5C 1057.2,200.314 1039.36,208.48 1016.5,206C 984.465,199.951 967.465,180.618 965.5,148C 968.043,115.674 985.043,96.1743 1016.5,89.5 Z M 1016.5,101.5 C 1045.26,99.7826 1063.09,112.783 1070,140.5C 1072.15,168.733 1059.65,186.566 1032.5,194C 999.899,195.733 981.566,180.4 977.5,148C 979.617,123.215 992.617,107.715 1016.5,101.5 Z"></path></g><g><path style="opacity:0.969" fill="#f6850a" d="M 425.5,92.5 C 503.833,92.5 582.167,92.5 660.5,92.5C 660.5,203.833 660.5,315.167 660.5,426.5C 631.5,426.5 602.5,426.5 573.5,426.5C 573.5,343.5 573.5,260.5 573.5,177.5C 553.167,177.5 532.833,177.5 512.5,177.5C 512.95,225.855 512.45,274.189 511,322.5C 508.118,348.831 498.785,372.497 483,393.5C 462.993,413.417 438.827,424.583 410.5,427C 398.468,427.777 386.468,427.443 374.5,426C 372.513,398.393 371.847,370.559 372.5,342.5C 378.969,343.4 385.469,344.067 392,344.5C 409.951,344.88 420.284,336.214 423,318.5C 423.958,313.877 424.625,309.21 425,304.5C 425.5,233.834 425.667,163.167 425.5,92.5 Z M 440.5,107.5 C 508.833,107.5 577.167,107.5 645.5,107.5C 645.5,208.833 645.5,310.167 645.5,411.5C 626.167,411.5 606.833,411.5 587.5,411.5C 587.5,328.833 587.5,246.167 587.5,163.5C 557.833,163.5 528.167,163.5 498.5,163.5C 498.932,214.184 498.432,264.85 497,315.5C 490.874,382.143 454.374,414.477 387.5,412.5C 387.5,394.833 387.5,377.167 387.5,359.5C 413.678,361.186 430.178,349.519 437,324.5C 438.828,315.26 439.828,305.927 440,296.5C 440.5,233.501 440.667,170.501 440.5,107.5 Z"></path></g><g><path style="opacity:0.905" fill="#000000" d="M 723.5,92.5 C 727.5,92.5 731.5,92.5 735.5,92.5C 735.333,108.503 735.5,124.503 736,140.5C 753.833,124.667 771.667,108.833 789.5,93C 795.167,92.3333 800.833,92.3333 806.5,93C 786.833,110.667 767.167,128.333 747.5,146C 768.024,164.768 788.357,183.768 808.5,203C 802.833,203.667 797.167,203.667 791.5,203C 773.167,185.833 754.833,168.667 736.5,151.5C 735.5,168.821 735.167,186.154 735.5,203.5C 731.5,203.5 727.5,203.5 723.5,203.5C 723.5,166.5 723.5,129.5 723.5,92.5 Z"></path></g><g><path style="opacity:0.949" fill="#000000" d="M 1246.5,92.5 C 1277.5,92.5 1308.5,92.5 1339.5,92.5C 1339.5,96.1667 1339.5,99.8333 1339.5,103.5C 1326.17,103.5 1312.83,103.5 1299.5,103.5C 1299.5,136.833 1299.5,170.167 1299.5,203.5C 1295.5,203.5 1291.5,203.5 1287.5,203.5C 1287.5,170.167 1287.5,136.833 1287.5,103.5C 1273.83,103.5 1260.17,103.5 1246.5,103.5C 1246.5,99.8333 1246.5,96.1667 1246.5,92.5 Z"></path></g><g><path style="opacity:0.963" fill="#f6850a" d="M 63.5,92.5 C 92.8333,92.5 122.167,92.5 151.5,92.5C 151.333,133.168 151.5,173.835 152,214.5C 180.5,174 209,133.5 237.5,93C 271.167,92.3333 304.833,92.3333 338.5,93C 300.972,147.029 263.638,201.196 226.5,255.5C 264.776,312.441 303.442,369.107 342.5,425.5C 308.833,426.833 275.167,426.833 241.5,425.5C 211.667,382.5 181.833,339.5 152,296.5C 151.5,339.832 151.333,383.165 151.5,426.5C 122.167,426.5 92.8333,426.5 63.5,426.5C 63.5,315.167 63.5,203.833 63.5,92.5 Z M 78.5,107.5 C 97.8333,107.5 117.167,107.5 136.5,107.5C 136.5,208.833 136.5,310.167 136.5,411.5C 117.167,411.5 97.8333,411.5 78.5,411.5C 78.5,310.167 78.5,208.833 78.5,107.5 Z M 245.5,107.5 C 267.169,107.333 288.836,107.5 310.5,108C 275.754,156.828 241.754,206.162 208.5,256C 243.428,307.931 278.761,359.597 314.5,411C 292.833,411.667 271.167,411.667 249.5,411C 213.5,359 177.5,307 141.5,255C 176.299,205.892 210.966,156.725 245.5,107.5 Z"></path></g><g><path style="opacity:0.902" fill="#000000" d="M 1071.5,265.5 C 1074.45,266.973 1077.45,268.473 1080.5,270C 1081.06,270.725 1081.39,271.558 1081.5,272.5C 1077.88,283.952 1070.55,292.118 1059.5,297C 1044.29,302.941 1029.62,309.941 1015.5,318C 1006.64,323.901 1001.47,332.067 1000,342.5C 1014.44,326.796 1032.28,320.629 1053.5,324C 1079.68,331.178 1093.34,348.345 1094.5,375.5C 1091.51,408.656 1073.34,425.989 1040,427.5C 1002.62,424.782 983.785,404.615 983.5,367C 981.487,338.349 992.821,317.015 1017.5,303C 1032.44,296.529 1047.11,289.529 1061.5,282C 1067.29,277.902 1070.63,272.402 1071.5,265.5 Z M 1040.5,334.5 C 1066.23,336.521 1080.23,350.354 1082.5,376C 1079.64,401.187 1065.48,414.354 1040,415.5C 1013.74,413.904 999.239,400.071 996.5,374C 998.385,356.241 1007.72,344.241 1024.5,338C 1029.87,336.362 1035.2,335.195 1040.5,334.5 Z"></path></g><g><path style="opacity:0.894" fill="#000000" d="M 890.5,310.5 C 913.351,308.513 931.185,316.847 944,335.5C 944.5,328.174 944.666,320.841 944.5,313.5C 948.833,313.5 953.167,313.5 957.5,313.5C 957.5,350.5 957.5,387.5 957.5,424.5C 953.167,424.5 948.833,424.5 944.5,424.5C 944.666,417.159 944.5,409.826 944,402.5C 931.197,421.314 913.363,429.48 890.5,427C 858.465,420.951 841.465,401.618 839.5,369C 842.043,336.674 859.043,317.174 890.5,310.5 Z M 890.5,322.5 C 919.257,320.783 937.09,333.783 944,361.5C 946.147,389.733 933.647,407.566 906.5,415C 873.899,416.733 855.566,401.4 851.5,369C 853.617,344.215 866.617,328.715 890.5,322.5 Z"></path></g><g><path style="opacity:0.932" fill="#000000" d="M 735.5,313.5 C 761.833,313.5 788.167,313.5 814.5,313.5C 814.5,350.5 814.5,387.5 814.5,424.5C 810.5,424.5 806.5,424.5 802.5,424.5C 802.5,391.167 802.5,357.833 802.5,324.5C 784.167,324.5 765.833,324.5 747.5,324.5C 747.667,344.169 747.5,363.836 747,383.5C 746.73,392.121 745.063,400.455 742,408.5C 735.023,421.554 724.189,426.887 709.5,424.5C 708.511,420.893 708.177,417.226 708.5,413.5C 719.681,414.997 727.515,410.663 732,400.5C 733.836,394.304 734.836,387.97 735,381.5C 735.5,358.836 735.667,336.169 735.5,313.5 Z"></path></g></svg> 