<svg xmlns="http://www.w3.org/2000/svg" viewBox="0 0 226 56"><path d="M165.265 55.724l-12.7-.021c-.437-2.8.964-4.492 3.727-4.493h7c2.2-.007 3.35-1.347 3.031-3.641-2.744 0-5.5.023-8.261-.013a11.147 11.147 0 01-2.674-.295 7.1 7.1 0 01-5.245-6.433c-.094-5.194-.038-10.391-.043-15.586a.542.542 0 01.059-.168 22.71 22.71 0 013.329.032 3.134 3.134 0 012.477 3.285c.019 3.8-.031 7.593.04 11.387a4.312 4.312 0 00.725 2.225 2.371 2.371 0 001.623.935c2.663.1 5.331.043 8.057.043V25.04h5.955v22.949a7.416 7.416 0 01-7.1 7.735zm18.314-8.153c0 1.587.006 3.074 0 4.561a3.3 3.3 0 01-3.533 3.568c-.746.006-1.491 0-2.312 0V25.08c.072-.032.153-.1.236-.1 4.264 0 8.532-.11 12.792.031 4.532.15 8.148 3.295 9.469 7.931a11.659 11.659 0 01-4.891 13.263 9.623 9.623 0 01-5.155 1.367c-1.868-.008-3.736 0-5.6 0zm.065-17.906v13.317c1.8 0 3.536.072 5.27-.021a5.659 5.659 0 004.013-1.931 7.1 7.1 0 001.548-6.7 5.6 5.6 0 00-5.529-4.645c-1.734-.088-3.476-.02-5.301-.02zm-72.261 4.251a3.508 3.508 0 01-3.8 4.435 26.892 26.892 0 00-2.986-.007 2.278 2.278 0 00-2.376 2.339 2.237 2.237 0 002.374 2.318c2.861.017 5.722 0 8.65 0 .022-.271.06-.508.06-.746q.005-4.714 0-9.428a2.866 2.866 0 00-3.172-3.178c-3.8-.016-7.592 0-11.388 0h-1.047v-4.615c.228-.023.464-.066.7-.066 4.387 0 8.775-.022 13.162 0a7.288 7.288 0 017.462 5.775 3.285 3.285 0 01.117.733c.006 5.317 0 10.634 0 16.021-.225.022-.46.066-.7.067-5.041 0-10.081.02-15.121 0a6.863 6.863 0 11-.408-13.718c2.769-.021 5.538 0 8.307.007a.491.491 0 01.166.063zm114.572 13.587a3.473 3.473 0 01-.47.064c-5.23 0-10.46.059-15.688-.02a6.81 6.81 0 01-6.8-7.037 6.918 6.918 0 016.06-6.637 8.081 8.081 0 01.933-.031h8.188c.47 2.756-.97 4.49-3.67 4.5-1.027 0-2.055-.019-3.081.006a2.31 2.31 0 00-2.409 2.323 2.286 2.286 0 002.466 2.336c2.646.012 5.292 0 7.938 0 .211 0 .424-.034.682-.056 0-3.549.047-7.063-.02-10.577-.033-1.723-1.253-2.711-3.134-2.719-3.8-.014-7.595 0-11.392 0h-1.037v-4.613a5.632 5.632 0 01.626-.068c4.421 0 8.841-.024 13.261.005a7.267 7.267 0 017.452 5.9 6.591 6.591 0 01.136 1.388q.015 7.331.006 14.662c-.003.179-.028.363-.047.574zM93.332 42.881v4.572a.747.747 0 01-.246.1c-3.64 0-7.284.109-10.919-.038-6.378-.258-10.91-4.115-12.317-10.354a17.23 17.23 0 01.92-11.313 12.331 12.331 0 0111.075-7.46c3.719-.227 7.464-.048 11.2-.046a1.074 1.074 0 01.249.058c.563 3.2-1.52 4.854-4.02 4.618-.863-.082-1.741-.013-2.612-.013h-3.08a6.754 6.754 0 00-6.8 5.035 17.567 17.567 0 00-.016 9.757 6.677 6.677 0 006.76 5.076c2.924.025 5.849.005 8.773.006zm37.327-7.217c2.96-3.351 5.932-6.692 8.871-10.062a1.677 1.677 0 011.429-.651c2.165.034 4.33.013 6.709.013l-10.457 11.06 10.454 11.546c-1.513 0-2.834.012-4.155 0-1.3-.015-2.773.31-3.852-.194-1.048-.49-1.7-1.839-2.51-2.817-2.165-2.6-4.326-5.2-6.657-8v2.587c0 1.649.022 3.3-.005 4.947a3.328 3.328 0 01-3.378 3.47c-.831.038-1.665.006-2.529.006V25.135h5.863v10.466z" fill="#1a202c"/><path d="M1.37 30.136c-2.3-4.111-1.647-10.022 1.543-13.92a16.576 16.576 0 019.949-5.62c9.687-1.956 18.01.973 25.3 7.365a3.816 3.816 0 01.3.378h-1.065c-6.471 0-12.942-.007-19.414.015a6.39 6.39 0 00-1.406.325l-.164.064.013-.014a4.668 4.668 0 00-.809.163 27.87 27.87 0 00-12.861 9.539c-.433.589-.923 1.137-1.386 1.705z" fill="#f46978"/><path d="M51.265 44.859A13.2 13.2 0 0136.627 55.6c-8.357-.823-18.237-7.81-20.136-18.2a32.451 32.451 0 01.361-13.508.574.574 0 01.292-.385c0 1.746.017 3.492 0 5.238-.081 7 3.277 11.9 9.259 15.206.16.089.315.187.472.281a24.9 24.9 0 002.969 1.569 26.016 26.016 0 0014.793.808c2.228-.483 4.42-1.163 6.628-1.75z" fill="#65076e"/><path d="M39.866 17.233l-.324-.324c-.1-.28-.116-.634-.3-.826a49.2 49.2 0 00-4.956-4.894 44.517 44.517 0 00-7.125-4.5 79 79 0 00-7.615-2.938c3.947-4.276 11.106-5.017 16.263-1.61a20.662 20.662 0 018.1 11.093 22.886 22.886 0 01-3.764 22.419c-.194.252-.423.477-.747.838 0-.3-.031-.4 0-.473a17.422 17.422 0 001.475-8.356c-.069-2.612-.042-5.228 0-7.84a2.706 2.706 0 00-.777-2.344z" fill="#d13378"/><path d="M50.24 12.836a13.007 13.007 0 015.626 17.523c-3.567 7.286-9.572 11.59-17.5 13.167a34.053 34.053 0 01-4.547.357 5.585 5.585 0 01-.961-.082l5.744-3.987.208-.192-.007.006.3-.28-.006.026.209-.2-.018.025.214-.207-.023.028.215-.212-.024.009c.218-.079.5-.1.643-.247a46.622 46.622 0 003.625-3.865 31.4 31.4 0 006.441-19.286c.014-.858-.089-1.721-.139-2.583z" fill="#8c0278"/><path d="M20.888 55.531a11.618 11.618 0 01-7.241-.955 13.33 13.33 0 01-7.875-10.992c-.874-6.6 1.456-12.337 5.3-17.527a45.371 45.371 0 014.008-4.258 2.16 2.16 0 01.551-.309l.038.038-.657 2.791a5.082 5.082 0 00-.471.946 35.744 35.744 0 00-.966 12.612 30.236 30.236 0 003.247 11.452c1.149 2.175 2.696 4.141 4.066 6.202z" fill="#f99b9b"/><path d="M20.888 55.531c-1.37-2.06-2.917-4.026-4.069-6.2a30.247 30.247 0 01-3.247-11.452 35.755 35.755 0 01.966-12.612 5.116 5.116 0 01.472-.947 33.372 33.372 0 00.172 14.869c1.481 5.844 4.985 10.267 9.83 13.714.32.228.642.451 1.077.757a10.639 10.639 0 01-5.201 1.871z" fill="#dc7575"/><path d="M50.239 12.835c.05.862.153 1.725.143 2.586a31.405 31.405 0 01-6.441 19.286 46.619 46.619 0 01-3.625 3.865c-.145.149-.425.167-.643.247a25.179 25.179 0 005.62-26.752c-.073-.2-.152-.4-.274-.708a11.049 11.049 0 015.22 1.476z" fill="#700361"/><path d="M19.543 3.755a78.965 78.965 0 017.614 2.938 44.521 44.521 0 017.125 4.5 49.169 49.169 0 014.956 4.894c.187.191.206.546.3.826a31.454 31.454 0 00-16.263-8.159c-2.17-.427-4.42-.45-6.715-.666a10.374 10.374 0 012.983-4.333z" fill="#be256a"/><path d="M51.268 44.857c-2.21.588-4.4 1.268-6.632 1.748a26.013 26.013 0 01-14.793-.808 24.9 24.9 0 01-2.969-1.569c8.972 3.063 16.878.764 24.207-4.864a10.886 10.886 0 01.187 5.493z" fill="#65076e"/><path d="M1.369 30.136c.463-.567.953-1.115 1.383-1.706a27.871 27.871 0 0112.861-9.539 4.686 4.686 0 01.809-.162c-1.947 1.76-4.025 3.4-5.811 5.308a26.184 26.184 0 00-5.561 9.881c-.056.17-.115.34-.219.652a10.774 10.774 0 01-3.462-4.434z" fill="#dc5b60"/><path d="M39.107 39.349l-.3.28z" fill="#700361"/><path d="M39.865 17.233l.24.247z" fill="#be256a"/><path d="M16.41 18.741l.164-.064a.284.284 0 01-.164.064z" fill="#dc5b60"/><path d="M15.628 21.49l.106-.075c-.022.038-.046.075-.068.114z" fill="#f99b9b"/><path d="M39.331 36.525l-.028.06-.083-.061.056-.06z" fill="#d13378"/><path d="M39.698 38.81l-.215.212zm-.192.184l-.214.207zm-.197.182l-.208.2zm-.497.447l-.208.191z" fill="#700361"/></svg>